<svg id="Plasma" xmlns="http://www.w3.org/2000/svg" viewBox="0 0 488.99 305.62"><defs><style>.cls-1{fill:#efb31e;stroke:#efb31e;stroke-miterlimit:10;stroke-width:1.36px;}.cls-2{fill:#69c7bb;}.cls-3{fill:#b8e2dd;}.cls-4{fill:#f3c91e;}.cls-5{fill:#3faa9d;}.cls-6{fill:#286159;}.cls-7{fill:#d42027;}.cls-8,.cls-9{fill:#fff;}.cls-9{opacity:0.59;}</style></defs><path class="cls-1" d="M178.6,299.17A44.25,44.25,0,0,1,134.4,255V236.38a2.53,2.53,0,0,1,5.06,0V255a39.14,39.14,0,0,0,78.28,0V197.38a44.25,44.25,0,0,1,44.2-44.2h13.83a.17.17,0,0,0,.17-.17.14.14,0,0,0-.05-.11c-.07-.08-.15-.16-.21-.24a94.46,94.46,0,0,1-10.35-16.11c-4.6-10.19-7.31-22.68-7.11-32.65a54.16,54.16,0,0,1,15.62-37.28,50.26,50.26,0,0,1,21.22-12.78,48.51,48.51,0,0,1,13.86-2l1.41,0a49.64,49.64,0,0,1,32,13,49.68,49.68,0,0,1,32-13l1.42,0a48.49,48.49,0,0,1,13.85,2,50.16,50.16,0,0,1,21.23,12.79,54.06,54.06,0,0,1,15.61,37.27c.21,10-2.5,22.46-7.08,32.6-.48,1-11.6,24.14-39.3,43.69-9.64,6.79-20.14,13.93-33.15,20l-.89.42a8.59,8.59,0,0,1-3.66.81,8.42,8.42,0,0,1-3.65-.82l-.88-.41c-13-6.06-23.5-13.2-33.14-20a138.55,138.55,0,0,1-11.85-9.37A2.53,2.53,0,1,1,296.1,167a134.65,134.65,0,0,0,11.42,9c9.46,6.67,19.75,13.66,32.37,19.55l.9.42a3.27,3.27,0,0,0,1.49.33,3.39,3.39,0,0,0,1.5-.32l.91-.43c12.63-5.89,22.92-12.88,32.38-19.55,26.62-18.78,37.18-40.73,37.62-41.65,4.27-9.48,6.81-21.13,6.62-30.4a49.11,49.11,0,0,0-14.14-33.81,45.17,45.17,0,0,0-19.09-11.5,43.43,43.43,0,0,0-12.41-1.81c-.43,0-.86,0-1.28,0a44.69,44.69,0,0,0-30.31,13.21,2.53,2.53,0,0,1-3.57,0,44.72,44.72,0,0,0-30.32-13.21c-.41,0-.84,0-1.27,0a43.55,43.55,0,0,0-12.42,1.81,45.1,45.1,0,0,0-19.07,11.5A49.08,49.08,0,0,0,263.28,104c-.19,9.27,2.35,20.92,6.63,30.42a88.67,88.67,0,0,0,9.68,15,5.22,5.22,0,0,1-3.82,8.79H261.94a39.19,39.19,0,0,0-39.14,39.14V255A44.25,44.25,0,0,1,178.6,299.17Z"/><rect class="cls-2" x="62.22" y="40.2" width="149.5" height="175.26" rx="15.22"/><rect class="cls-3" x="70.4" y="46.95" width="134.5" height="160.87" rx="15.22"/><path class="cls-4" d="M164.22,104.7A87.29,87.29,0,0,1,141,98.45c-5-2.17-10-4.43-15-6.68-15.41-7-30.69-15.71-48.42-11.26v99.38a21.61,21.61,0,0,0,21.54,21.54h77.2a21.61,21.61,0,0,0,21.54-21.54V106l-.24,0C186.13,106,175.09,106.17,164.22,104.7Z"/><polygon class="cls-5" points="126.38 215.46 128.64 224.99 147.15 224.99 149.1 215.46 126.38 215.46"/><rect class="cls-6" x="133.13" y="224.35" width="9.39" height="11.94" rx="2.13"/><path class="cls-6" d="M125.94,23c0-.33-1-8.24,3.09-12.92a10.08,10.08,0,0,1,8-3.31V10a7,7,0,0,0-5.58,2.23c-2.64,3-2.58,8.55-2.33,10.43Z"/><path class="cls-6" d="M147.93,23l-3.13-.41,1.57.21-1.57-.2c0-.07.83-6.85-2.34-10.44A7,7,0,0,0,136.88,10V6.81a10.07,10.07,0,0,1,8,3.31C149,14.8,148,22.71,147.93,23Z"/><path class="cls-5" d="M154.83,29.45V24.27a2.72,2.72,0,0,0-2.71-2.71h-28.9a2.72,2.72,0,0,0-2.71,2.71v4.29s0,8.84-15.35,11.64h64.91C157.7,37.94,155.29,31.76,154.83,29.45Z"/><path class="cls-7" d="M168.07,143.52c-1,0-1.79.87-2.21,2.14v-.17a13.08,13.08,0,0,1-11,.23,17.39,17.39,0,0,0-.94-4.21l.14.35s1.55-2.48,6.25-2.64a1.73,1.73,0,0,0,1.9.8c.82-.34,1-1.67.49-3s-1.66-2.09-2.47-1.75a1.79,1.79,0,0,0-.76,2,8.71,8.71,0,0,1-6.29,2.32l.37,1a17.45,17.45,0,0,0-2.53-4.21l.48.48a13.09,13.09,0,0,1,7.92-7.69l0,0a2.52,2.52,0,0,0,2.85-.16c1-1,.5-3-1.07-4.61s-3.63-2-4.61-1.07c-.71.72-.65,2,0,3.27-2.82,6.44-7,7.54-7.63,7.68a17.71,17.71,0,0,0-3.71-2.52l.29.11s-.85-2.92,2.38-6.63a1.7,1.7,0,0,0,1.81-.79c.34-.82-.45-1.92-1.77-2.45s-2.64-.31-3,.51a1.68,1.68,0,0,0,.72,1.81,8.72,8.72,0,0,1-2.37,6.62,17.19,17.19,0,0,0-3.74-.92c-.18-.24-2.74-4,0-11,1.24-.43,2.08-1.25,2.08-2.2,0-1.38-1.8-2.5-4-2.5s-4,1.12-4,2.5c0,.95.84,1.77,2.08,2.2a13.09,13.09,0,0,1,.25,10.9,18,18,0,0,0-4.18.83,8.66,8.66,0,0,1-2.85-6.06c.76-.54,1.16-1.28.94-1.89-.3-.83-1.62-1.12-3-.64s-2.17,1.54-1.87,2.37c.23.65,1.06,1,2,.85.75.69,2.28,2.53,2.37,6.32a18.06,18.06,0,0,0-3.64,2.4l.48-.48c-7.12-3.06-7.83-7.77-7.83-7.77l0,0a2.66,2.66,0,0,0-.27-3c-1-.91-3.07-.31-4.54,1.36s-1.81,3.75-.78,4.67c.77.68,2.1.52,3.33-.3a13.07,13.07,0,0,1,7.37,7.8l.24-.24a17.36,17.36,0,0,0-2.32,3.53,8.69,8.69,0,0,1-5.91-2.78,1.76,1.76,0,0,0-.5-2.05c-.76-.44-2,.19-2.66,1.42s-.67,2.58.1,3c.59.34,1.43,0,2.11-.68,1,0,3.4.46,5.93,3.33a18,18,0,0,0-.79,3.63h0a13.07,13.07,0,0,1-11,.21c-.42-1.29-1.26-2.18-2.23-2.18-1.38,0-2.51,1.8-2.51,4s1.13,4,2.51,4c1,0,1.81-.89,2.23-2.18,0,0,3.82-2.85,11,0h0a17.79,17.79,0,0,0,.71,3.38,8.73,8.73,0,0,1-6.31,2.57,1.69,1.69,0,0,0-1.8-.83c-.84.3-1.12,1.62-.65,2.95s1.54,2.18,2.37,1.88c.63-.23.95-1,.86-2,.58-.66,2.44-2.31,6.41-2.31a17.79,17.79,0,0,0,2.2,3.5,13.07,13.07,0,0,1-7.58,7.86,2.55,2.55,0,0,0-2.87,0c-1,.91-.7,3,.77,4.67s3.49,2.29,4.53,1.37c.79-.69.78-2.08.08-3.43.12-.59,1.19-4.86,7.82-7.71a17.54,17.54,0,0,0,3.15,2l-.31-.13a8.62,8.62,0,0,1-2.26,6.38,1.77,1.77,0,0,0-2,.67c-.38.8.36,1.93,1.64,2.54s2.62.44,3-.35c.29-.62-.08-1.44-.85-2.06-.05-1,.17-3.43,2.84-6.19A17.28,17.28,0,0,0,136,165a13.25,13.25,0,0,1,0,10.58h.13c-1.42.39-2.41,1.27-2.41,2.3,0,1.38,1.8,2.5,4,2.5s4-1.12,4-2.5c0-1-1-1.91-2.41-2.3h.34s-2.75-3.69-.15-10.66a17.53,17.53,0,0,0,4.29-1.08c.69.54,2.45,2.26,2.72,6.18a1.7,1.7,0,0,0-.72,1.84c.34.81,1.67,1,3,.48s2.09-1.65,1.75-2.46a1.7,1.7,0,0,0-1.8-.78,8.69,8.69,0,0,1-3-6.16,17.41,17.41,0,0,0,3.34-2.34,13.16,13.16,0,0,1,7.46,7.71c-.66,1.23-.71,2.49,0,3.19,1,1,3.05.5,4.61-1.07s2-3.64,1.08-4.61a2.59,2.59,0,0,0-2.92-.14c-6.71-2.89-7.71-7.25-7.8-7.72a17.21,17.21,0,0,0,1.77-3c.49-.07,3.32-.36,6.6,3v0a1.73,1.73,0,0,0,.81,1.89c.82.32,1.91-.48,2.42-1.8s.27-2.65-.55-3a1.6,1.6,0,0,0-1.68.6l0,0a8.63,8.63,0,0,1-6.72-2.8l-.11.24a17.42,17.42,0,0,0,.81-3.7c.39-.27,4.17-2.66,11,0,.42,1.3,1.26,2.19,2.23,2.19,1.39,0,2.51-1.8,2.51-4S169.46,143.52,168.07,143.52Z"/><path class="cls-8" d="M137.22,185.71a38.39,38.39,0,1,1,38.39-38.39A38.43,38.43,0,0,1,137.22,185.71Zm0-72.95a34.56,34.56,0,1,0,34.56,34.56A34.59,34.59,0,0,0,137.22,112.76Z"/><rect class="cls-8" x="134.29" y="112.19" width="4.22" height="69.12" transform="translate(143.71 -53.46) rotate(45)"/><path class="cls-9" d="M188.31,53h-5.42v-.08H89.44S77.6,54.21,77.6,62.1H182.66V200.48l6.91-3.63c8.31-6.44,8.31-13.64,8.31-22.21V68.58C197.88,60,195.93,54.94,188.31,53Z"/></svg>